<svg width="135" height="40" viewBox="0 0 135 40" fill="none" xmlns="http://www.w3.org/2000/svg">
<g clip-path="url(#clip0_33_1202)">
<path fill-rule="evenodd" clip-rule="evenodd" d="M16.2756 0L10.6676 8.89733L21.7649 26.5467H32.8209L16.2756 0Z" fill="#D8D8D8"/>
<path fill-rule="evenodd" clip-rule="evenodd" d="M16.2756 0L10.6676 8.89733L21.7649 26.5467H32.8209L16.2756 0Z" fill="url(#paint0_linear_33_1202)"/>
<path fill-rule="evenodd" clip-rule="evenodd" d="M21.8689 8.97333L16.2596 17.7893L10.6676 8.896L16.2756 0L21.8689 8.97333Z" fill="#1DE3D1"/>
<path fill-rule="evenodd" clip-rule="evenodd" d="M21.8689 31.1453L16.2596 39.9613L10.6676 31.068L16.2756 22.1707L21.8689 31.1453Z" fill="url(#paint1_linear_33_1202)"/>
<path fill-rule="evenodd" clip-rule="evenodd" d="M-0.215088 26.5467H10.6676L16.2396 17.772L10.6676 8.89734L-0.215088 26.5467Z" fill="url(#paint2_linear_33_1202)"/>
<path d="M54.1875 8.98402H58.0422V23.9334H54.1889V22.1694C53.1115 23.5147 51.4982 24.352 49.3169 24.352C45.3435 24.352 42.0555 20.912 42.0555 16.4587C42.0555 12.0027 45.3422 8.56402 49.3169 8.56402C51.4982 8.56402 53.1115 9.40135 54.1875 10.7467V8.98402ZM50.0342 20.6747C52.4249 20.6747 54.1875 18.9707 54.1875 16.4587C54.1875 13.9467 52.4249 12.2427 50.0342 12.2427C47.6742 12.2427 45.9102 13.9467 45.9102 16.4587C45.9102 18.9707 47.6729 20.6747 50.0342 20.6747ZM71.2182 8.56535C75.2222 8.56535 78.5089 12.004 78.5089 16.4587C78.5089 20.9147 75.2222 24.352 71.2182 24.352C69.0355 24.352 67.4529 23.5454 66.3769 22.1707V29.9147H62.5222V8.98402H66.3755V10.7467C67.4529 9.37069 69.0355 8.56402 71.2182 8.56402V8.56535ZM70.5009 20.6747C72.8915 20.6747 74.6542 18.9707 74.6542 16.4587C74.6542 13.9467 72.8915 12.2427 70.5009 12.2427C68.1409 12.2427 66.3769 13.9467 66.3769 16.4587C66.3769 18.9707 68.1395 20.6747 70.5009 20.6747ZM82.3569 23.8027V8.85335H86.2115V23.804H82.3582L82.3569 23.8027ZM114.468 7.13469V3.27869H118.322V7.13469H114.469H114.468ZM82.3569 7.13469V3.27869H86.2115V7.13469H82.3582H82.3569ZM107.398 8.98402H111.492L106.742 23.9334H103.068L100.318 14.8734L97.5689 23.9334H93.8915L89.1409 8.98402H93.2342L95.7742 18.164L98.4942 8.98402H102.14L104.86 18.1934L107.398 8.98402ZM114.468 23.8027V8.85335H118.322V23.804H114.469L114.468 23.8027ZM127.622 20.316H134.257V23.9347H122.452V21.3627L128.757 12.6027H122.75V8.98269H133.957V11.5534L127.621 20.3147L127.622 20.316Z" fill="#0A0A0A"/>
</g>
<defs>
<linearGradient id="paint0_linear_33_1202" x1="23.6614" y1="23.6411" x2="16.1202" y2="11.3981" gradientUnits="userSpaceOnUse">
<stop stop-color="#00C2FF"/>
<stop offset="1" stop-color="#005AF9"/>
</linearGradient>
<linearGradient id="paint1_linear_33_1202" x1="16.2683" y1="22.1707" x2="16.2683" y2="39.9613" gradientUnits="userSpaceOnUse">
<stop stop-color="#FF16A6"/>
<stop offset="1" stop-color="#FFBF27"/>
</linearGradient>
<linearGradient id="paint2_linear_33_1202" x1="5.93567" y1="26.5467" x2="16.1512" y2="10.5208" gradientUnits="userSpaceOnUse">
<stop stop-color="#E300F6"/>
<stop offset="1" stop-color="#5213D2"/>
</linearGradient>
<clipPath id="clip0_33_1202">
<rect width="134.667" height="40" fill="white"/>
</clipPath>
</defs>
</svg>
