<svg width="28" height="26" viewBox="0 0 28 26" fill="none" xmlns="http://www.w3.org/2000/svg">
<g clip-path="url(#clip0_209_97)">
<path fill-rule="evenodd" clip-rule="evenodd" d="M8.99479 21.2112H13.9506L16.5238 24.5345L16.0813 25.6667H9.67873L9.83579 24.5345L8.32645 22.0888L8.99479 21.2112ZM12.5409 6.61141L15.197 6.60731L27.1321 21.2231L26.2048 25.6667H21.0895L21.408 24.4147L10.2552 10.7538L12.5409 6.61141ZM17.2336 0.666687L22.7819 5.14598L22.0715 5.89891L23.0337 7.27509V8.74657L20.2675 11.0628L15.6157 5.41747H12.9073L13.9978 3.36434L17.2334 0.666687H17.2336ZM5.58785 15.013L9.45817 11.5579L14.595 17.9075L13.1366 20.2337H8.40003L5.12315 24.6507L4.37475 25.6667H0.128906V20.2472L4.08631 15.013H5.58785Z" fill="#2F80ED"/>
</g>
<defs>
<clipPath id="clip0_209_97">
<rect width="27" height="25" fill="white" transform="translate(0.128906 0.666687)"/>
</clipPath>
</defs>
</svg>
