<svg width="27" height="27" viewBox="0 0 27 27" fill="none" xmlns="http://www.w3.org/2000/svg">
<path d="M0.714835 13.6162C0.714834 15.8128 2.49552 17.5934 4.69211 17.5934C6.88869 17.5934 8.66938 15.8128 8.66938 13.6162C8.66938 11.4196 6.88869 9.6389 4.69211 9.6389C2.49552 9.6389 0.714835 11.4196 0.714835 13.6162Z" stroke="#369EFF" stroke-width="1.25" stroke-linecap="round" stroke-linejoin="round"/>
<path d="M17.7603 22.1389C17.7603 24.3355 19.541 26.1162 21.7376 26.1162C23.9342 26.1162 25.7148 24.3355 25.7148 22.1389C25.7148 19.9423 23.9342 18.1616 21.7376 18.1616C19.541 18.1616 17.7603 19.9423 17.7603 22.1389Z" stroke="#369EFF" stroke-width="1.25" stroke-linecap="round" stroke-linejoin="round"/>
<path d="M17.7603 5.09345C17.7603 7.29004 19.541 9.07073 21.7376 9.07073C23.9342 9.07073 25.7148 7.29004 25.7148 5.09345C25.7148 2.89687 23.9342 1.11618 21.7376 1.11618C19.541 1.11618 17.7603 2.89687 17.7603 5.09345Z" stroke="#369EFF" stroke-width="1.25" stroke-linecap="round" stroke-linejoin="round"/>
<path d="M17.7603 5.09349L16.6239 5.09349C16.1757 5.09161 15.7316 5.17851 15.3171 5.34916C14.9027 5.51982 14.5261 5.77086 14.2092 6.0878C13.8922 6.40474 13.6412 6.7813 13.4705 7.19576C13.2999 7.61022 13.213 8.05437 13.2148 8.50258L13.2148 18.7299C13.213 19.1781 13.2999 19.6222 13.4705 20.0367C13.6412 20.4511 13.8922 20.8277 14.2092 21.1446C14.5261 21.4616 14.9027 21.7126 15.3171 21.8833C15.7316 22.0539 16.1757 22.1408 16.6239 22.1389L17.7603 22.1389" stroke="#369EFF" stroke-width="1.25" stroke-linecap="round" stroke-linejoin="round"/>
<path d="M13.2148 13.6162L8.66939 13.6162" stroke="#369EFF" stroke-width="1.25" stroke-linecap="round" stroke-linejoin="round"/>
</svg>
