<svg width="31" height="31" viewBox="0 0 31 31" fill="none" xmlns="http://www.w3.org/2000/svg">
<path d="M15.7336 30.6236C7.74031 30.5685 0.790187 23.9347 0.844061 15.5066C0.895857 7.39692 7.63496 0.569005 15.9738 0.624296C24.0782 0.678148 30.9156 7.40522 30.8432 15.6467C30.9103 23.8134 24.0392 30.6813 15.7336 30.6236ZM15.7336 30.6236C7.74031 30.5685 0.790187 23.9347 0.844061 15.5066C0.895857 7.39692 7.63496 0.569005 15.9738 0.624296C24.0782 0.678148 30.9156 7.40522 30.8432 15.6467C30.9103 23.8134 24.0392 30.6813 15.7336 30.6236Z" fill="white"/>
<path d="M15.7482 28.6315C8.81629 28.5836 2.78949 22.8308 2.83621 15.5222C2.88118 8.48942 8.72524 2.5683 15.9566 2.61644C22.9845 2.66314 28.9139 8.49691 28.8511 15.6438C28.9093 22.7258 22.9509 28.6815 15.7482 28.6315ZM15.7482 28.6315C8.81629 28.5836 2.78949 22.8308 2.83621 15.5222C2.88118 8.48942 8.72524 2.5683 15.9566 2.61644C22.9845 2.66314 28.9139 8.49691 28.8511 15.6438C28.9093 22.7258 22.9509 28.6815 15.7482 28.6315Z" fill="#49A32B"/>
<path d="M20.6868 15.6188C20.6534 16.2388 20.1118 16.7536 19.5781 16.6637C19.5755 16.6637 19.5728 16.6637 19.5701 16.6637C18.9789 16.6645 18.499 16.1858 18.4984 15.5946C18.5185 15.0018 19.0101 14.5345 19.6031 14.5446C20.1943 14.5474 20.7187 15.0471 20.6868 15.6188ZM11.1798 21.6263C11.4028 21.6329 11.6258 21.6281 11.8829 21.6281V23.2436C10.2851 23.5138 8.96892 23.0601 8.64594 21.7095C8.53536 21.2129 8.46738 20.7077 8.44249 20.1994C8.40818 19.6613 8.46754 19.1172 8.42653 18.58C8.31291 17.1021 8.12142 16.5975 6.70312 16.5276V14.6882C6.80477 14.6644 6.90786 14.6469 7.01158 14.6352C7.78919 14.5969 8.11695 14.3585 8.29089 13.5925C8.37004 13.1622 8.41695 12.7265 8.43084 12.2891C8.49243 11.4434 8.47057 10.5839 8.61148 9.75191C8.81509 8.54872 9.56206 7.9642 10.7959 7.89877C11.147 7.87994 11.4991 7.8959 11.897 7.8959V9.54718C11.7332 9.55882 11.5832 9.5826 11.4342 9.57813C10.4287 9.54734 10.3767 9.88978 10.3033 10.7221C10.2575 11.2441 10.3207 11.775 10.2851 12.2987C10.2479 12.8199 10.1782 13.3383 10.0764 13.8509C9.93132 14.5937 9.47461 15.1462 8.84174 15.615C10.0703 16.4145 10.2101 17.6568 10.2899 18.9182C10.3328 19.5961 10.3132 20.2787 10.382 20.9532C10.4356 21.4768 10.6392 21.6104 11.1798 21.6263ZM12.2153 14.5446C12.2217 14.5446 12.2279 14.5446 12.2343 14.5446C12.8217 14.5543 13.2902 15.0383 13.2805 15.6258C13.2805 15.6452 13.2798 15.6643 13.2787 15.6835C13.2457 16.2576 12.7536 16.6961 12.1794 16.6631C12.1563 16.6636 12.1333 16.6631 12.1101 16.662C11.5255 16.6329 11.075 16.1354 11.104 15.5507C11.1331 14.966 11.6306 14.5155 12.2153 14.5446ZM15.8758 14.5446C16.5182 14.5396 16.9449 14.956 16.9483 15.5911C16.9518 16.2432 16.5473 16.6605 15.909 16.6632C15.2598 16.6661 14.8325 16.2555 14.829 15.6243C14.8271 15.592 14.8266 15.5598 14.8275 15.5275C14.8456 14.9666 15.3149 14.5265 15.8758 14.5446ZM23.5398 13.74C23.7107 14.3783 24.0434 14.6027 24.7154 14.6333C24.8255 14.6384 24.9351 14.6571 25.0861 14.6738V16.5128C25.0044 16.5396 24.9206 16.5597 24.8356 16.5728C23.9351 16.6288 23.5247 16.9982 23.4337 17.9011C23.3756 18.4774 23.3804 19.0602 23.3405 19.6387C23.3238 20.2738 23.266 20.9071 23.1675 21.5347C22.9378 22.6719 22.2278 23.2391 21.0548 23.3084C20.6772 23.3307 20.297 23.3119 19.8899 23.3119V21.6683C20.109 21.6547 20.3024 21.6361 20.4963 21.6314C21.1971 21.6147 21.4449 21.3887 21.4792 20.6927C21.5172 19.928 21.5338 19.1623 21.568 18.3975C21.6176 17.292 21.9203 16.3044 22.9502 15.6148C22.3609 15.1947 21.8878 14.6858 21.7652 13.9996C21.617 13.1679 21.5691 12.3179 21.4893 11.4745C21.4499 11.0529 21.4518 10.6277 21.4106 10.2064C21.3663 9.75159 21.0538 9.59425 20.6399 9.58404C20.4028 9.57829 20.1647 9.58292 19.8615 9.58292V7.97792C21.7962 7.6567 23.1326 8.30042 23.2567 10.1515C23.3088 10.9288 23.3011 11.7097 23.3509 12.487C23.3728 12.9099 23.4359 13.3296 23.5398 13.74Z" fill="white"/>
</svg>
